<svg width="48" height="48" viewBox="0 0 48 48" fill="none" xmlns="http://www.w3.org/2000/svg">
  <!-- Background circle -->
  <circle cx="24" cy="24" r="24" fill="#4CAF50"/>
  
  <!-- Leaf shape -->
  <path d="M24 8C32 8 38 16 38 24C38 28 36 32 33 34.5C30 36 26 36 24 36C22 36 18 36 15 34.5C12 32 10 28 10 24C10 16 16 8 24 8Z" fill="#2E7D32"/>
  
  <!-- Stem -->
  <rect x="23" y="28" width="2" height="8" fill="#2E7D32"/>
  
  <!-- Leaf vein -->
  <path d="M24 12L24 28" stroke="#81C784" stroke-width="1.5" stroke-linecap="round"/>
  <path d="M18 18L24 22" stroke="#81C784" stroke-width="1" stroke-linecap="round"/>
  <path d="M30 18L24 22" stroke="#81C784" stroke-width="1" stroke-linecap="round"/>
  <path d="M20 26L24 28" stroke="#81C784" stroke-width="1" stroke-linecap="round"/>
  <path d="M28 26L24 28" stroke="#81C784" stroke-width="1" stroke-linecap="round"/>
  
  <!-- Wellness symbol (lotus petals) -->
  <path d="M24 38C26 38 28 36 28 34C28 32 26 30 24 30C22 30 20 32 20 34C20 36 22 38 24 38Z" fill="#A5D6A7"/>
  
  <!-- Small decorative dots -->
  <circle cx="16" cy="16" r="1.5" fill="#A5D6A7"/>
  <circle cx="32" cy="16" r="1.5" fill="#A5D6A7"/>
  <circle cx="14" cy="30" r="1.5" fill="#A5D6A7"/>
  <circle cx="34" cy="30" r="1.5" fill="#A5D6A7"/>
</svg> 